<svg xmlns="http://www.w3.org/2000/svg">
    <symbol id="location" viewBox="0 0 14 20">
        <path d="M7 0C3.13 0 0 3.13 0 7C0 8.74 0.5 10.37 1.41 11.84C2.36 13.38 3.61 14.7 4.57 16.24C5.04 16.99 5.38 17.69 5.74 18.5C6 19.05 6.21 20 7 20C7.79 20 8 19.05 8.25 18.5C8.62 17.69 8.95 16.99 9.42 16.24C10.38 14.71 11.63 13.39 12.58 11.84C13.5 10.37 14 8.74 14 7C14 3.13 10.87 0 7 0ZM7 9.75C5.62 9.75 4.5 8.63 4.5 7.25C4.5 5.87 5.62 4.75 7 4.75C8.38 4.75 9.5 5.87 9.5 7.25C9.5 8.63 8.38 9.75 7 9.75Z"/>
    </symbol>
    <symbol id="chat" viewBox="0 0 26 26">
        <path d="M24.25 5.5H21.75V16.75H5.5V19.25C5.5 19.9375 6.0625 20.5 6.75 20.5H20.5L25.5 25.5V6.75C25.5 6.0625 24.9375 5.5 24.25 5.5ZM19.25 13V1.75C19.25 1.0625 18.6875 0.5 18 0.5H1.75C1.0625 0.5 0.5 1.0625 0.5 1.75V19.25L5.5 14.25H18C18.6875 14.25 19.25 13.6875 19.25 13Z" />
    </symbol>
    <symbol id="user" viewBox="0 0 26 26">
        <path d="M13 0.5C6.1 0.5 0.5 6.1 0.5 13C0.5 19.9 6.1 25.5 13 25.5C19.9 25.5 25.5 19.9 25.5 13C25.5 6.1 19.9 0.5 13 0.5ZM13 4.25C15.075 4.25 16.75 5.925 16.75 8C16.75 10.075 15.075 11.75 13 11.75C10.925 11.75 9.25 10.075 9.25 8C9.25 5.925 10.925 4.25 13 4.25ZM13 22C9.875 22 7.1125 20.4 5.5 17.975C5.5375 15.4875 10.5 14.125 13 14.125C15.4875 14.125 20.4625 15.4875 20.5 17.975C18.8875 20.4 16.125 22 13 22Z" />
    </symbol>
    <symbol id="logout" viewBox="0 0 13 12">
        <path d="M9.625 2.875L8.74375 3.75625L10.3562 5.375H4V6.625H10.3562L8.74375 8.2375L9.625 9.125L12.75 6L9.625 2.875ZM1.5 1.625H6.5V0.375H1.5C0.8125 0.375 0.25 0.9375 0.25 1.625V10.375C0.25 11.0625 0.8125 11.625 1.5 11.625H6.5V10.375H1.5V1.625Z" />
    </symbol>
    <symbol id="arrow-down" viewBox="0 0 10 7">
        <path d="M1.175 0.158203L5 3.97487L8.825 0.158203L10 1.3332L5 6.3332L0 1.3332L1.175 0.158203Z" />
    </symbol>
    <symbol id="prev-btn" viewBox="0 0 8 12">
        <path d="M7.41016 10.59L2.83016 6L7.41016 1.41L6.00016 0L0.000156403 6L6.00016 12L7.41016 10.59Z" />
    </symbol>
    <symbol id="next-btn" viewBox="0 0 8 12">
        <path d="M0.589844 10.59L5.16984 6L0.589844 1.41L1.99984 0L7.99984 6L1.99984 12L0.589844 10.59Z" />
    </symbol>
    <symbol id="close" viewBox="0 0 18 18">
        <path d="M17.75 2.0125L15.9875 0.25L9 7.2375L2.0125 0.25L0.25 2.0125L7.2375 9L0.25 15.9875L2.0125 17.75L9 10.7625L15.9875 17.75L17.75 15.9875L10.7625 9L17.75 2.0125Z" />
    </symbol>
    <symbol id="cookie" viewBox="0 0 63 63" fill="none">
        <path d="M25.25 47.125H25.2553V47.1303H25.25V47.125Z" stroke="#84A6C2" stroke-width="6.25" stroke-linecap="round" stroke-linejoin="round"/>
        <path d="M40.875 40.875H40.8803V40.8803H40.875V40.875Z" stroke="#84A6C2" stroke-width="6.25" stroke-linecap="round" stroke-linejoin="round"/>
        <path d="M28.375 31.5H28.3803V31.5053H28.375V31.5Z" stroke="#84A6C2" stroke-width="6.25" stroke-linecap="round" stroke-linejoin="round"/>
        <path d="M44 25.25H44.0053V25.2553H44V25.25Z" stroke="#84A6C2" stroke-width="6.25" stroke-linecap="round" stroke-linejoin="round"/>
        <path d="M3.375 15.875H3.38033V15.8803H3.375V15.875Z" stroke="#84A6C2" stroke-width="6.25" stroke-linecap="round" stroke-linejoin="round"/>
        <path d="M19 3.375H19.0053V3.38033H19V3.375Z" stroke="#84A6C2" stroke-width="6.25" stroke-linecap="round" stroke-linejoin="round"/>
        <path d="M6.5 3.375H6.50533V3.38033H6.5V3.375Z" stroke="#84A6C2" stroke-width="6.25" stroke-linecap="round" stroke-linejoin="round"/>
        <path d="M13.6359 31.4934C16.9773 28.1648 18.0408 23.4263 16.8264 19.2002C21.0687 20.4099 25.8254 19.3505 29.1668 16.0219C32.6017 12.6001 33.6294 7.68836 32.25 3.375C39.1863 3.58531 46.0596 6.32745 51.3538 11.6014C62.3821 22.5875 62.3821 40.3994 51.3538 51.3855C40.3256 62.3715 22.4454 62.3715 11.4172 51.3855C6.82056 46.8064 4.13985 41.0416 3.375 35.0794C7.03174 35.4819 10.8321 34.2865 13.6359 31.4934Z" stroke="#84A6C2" stroke-width="6.25" stroke-linecap="round" stroke-linejoin="round"/>
    </symbol>
    <symbol id="cupcake" viewBox="0 0 63 63" fill="none">
        <path d="M53.375 37.75H9.625L12.3667 56.9419C12.5866 58.4815 13.9051 59.625 15.4603 59.625H47.5397C49.0949 59.625 50.4134 58.4815 50.6333 56.9419L53.375 37.75Z" stroke="#FDAD6D" stroke-width="6.25" stroke-linecap="round" stroke-linejoin="round"/>
        <path d="M37.75 59.625L37.75 37.75" stroke="#FDAD6D" stroke-width="6.25" stroke-linecap="round" stroke-linejoin="round"/>
        <path d="M25.25 59.625L25.25 37.75" stroke="#FDAD6D" stroke-width="6.25" stroke-linecap="round" stroke-linejoin="round"/>
        <path d="M9.625 37.75C5.60087 36.7839 3.375 33.148 3.375 29.1562C3.375 26.0433 5.18064 23.3169 7.88424 21.8091C8.90928 21.2375 9.625 20.2301 9.625 19.1302C9.625 10.4288 17.3201 3.375 26.8125 3.375C30.3498 3.375 33.6375 4.35452 36.3704 6.03381C37.5326 6.74791 39.0432 6.82176 40.3938 6.4871C41.0452 6.32569 41.7304 6.23958 42.4375 6.23958C46.7522 6.23958 50.25 9.44588 50.25 13.401C50.25 14.3685 50.8653 15.3121 51.8426 15.6775C56.4076 17.3841 59.625 21.4935 59.625 26.2917C59.625 30.7612 57.4471 35.8611 53.375 37.75H9.625Z" stroke="#FDAD6D" stroke-width="6.25" stroke-linecap="round" stroke-linejoin="round"/>
    </symbol>
    <symbol id="arrow-right" viewBox="0 0 12 19" fill="none">
        <path d="M2.375 2.20801L9.66667 9.49967L2.375 16.7913" stroke="currentColor" stroke-width="3" stroke-linecap="round" stroke-linejoin="round"/>
    </symbol>
    <symbol id="facebook-circle" viewBox="0 0 20 20">
        <path fill-rule="evenodd" clip-rule="evenodd" d="M10 0C4.47715 0 0 4.47715 0 10C0 15.5228 4.47715 20 10 20C15.5228 20 20 15.5228 20 10C20 4.47715 15.5228 0 10 0ZM11.0423 10.4393V15.8798H8.79128V10.4395H7.66667V8.56463H8.79128V7.43899C8.79128 5.9095 9.42631 5 11.2305 5H12.7325V6.87505H11.7937C11.0913 6.87505 11.0449 7.13706 11.0449 7.62604L11.0423 8.56442H12.7432L12.5441 10.4393H11.0423Z"/>
    </symbol>
    <symbol id="google-circle" viewBox="0 0 21 20">
        <path fill-rule="evenodd" clip-rule="evenodd" d="M0.5 10C0.5 4.47715 4.97715 0 10.5 0C16.0228 0 20.5 4.47715 20.5 10C20.5 15.5228 16.0228 20 10.5 20C4.97715 20 0.5 15.5228 0.5 10ZM10.4856 7.34222C11.2981 7.34222 11.8462 7.6937 12.1587 7.98741L13.3799 6.79333C12.6299 6.09519 11.6539 5.66667 10.4856 5.66667C8.7932 5.66667 7.33161 6.63926 6.62004 8.05481C6.32677 8.64222 6.15849 9.30185 6.15849 10C6.15849 10.6981 6.32677 11.3578 6.62004 11.9452L8.02372 10.8572L6.62485 11.9452C7.33642 13.3607 8.7932 14.3333 10.4856 14.3333C11.6539 14.3333 12.6347 13.9481 13.3511 13.2837C14.1684 12.5278 14.6396 11.4156 14.6396 10.0963C14.6396 9.74 14.6107 9.48 14.5482 9.21037H10.4856V10.8185H12.8703C12.8222 11.2181 12.5626 11.82 11.9856 12.2244C11.6202 12.4796 11.1298 12.6578 10.4856 12.6578C9.3413 12.6578 8.37011 11.9019 8.02394 10.857C7.93259 10.5874 7.87971 10.2985 7.87971 10C7.87971 9.70148 7.93259 9.41259 8.01913 9.14296C8.37011 8.09815 9.3413 7.34222 10.4856 7.34222Z" />
    </symbol>
    <symbol id="load-more" viewBox="0 0 22 20">
        <path d="M14.5833 10C14.5833 8.85417 13.6458 7.91667 12.5 7.91667C11.3542 7.91667 10.4167 8.85417 10.4167 10C10.4167 11.1458 11.3542 12.0833 12.5 12.0833C13.6458 12.0833 14.5833 11.1458 14.5833 10ZM12.5 0.625C7.32292 0.625 3.125 4.82292 3.125 10H0L4.16667 14.1667L8.33333 10H5.20833C5.20833 5.96875 8.46875 2.70833 12.5 2.70833C16.5312 2.70833 19.7917 5.96875 19.7917 10C19.7917 14.0312 16.5312 17.2917 12.5 17.2917C10.9271 17.2917 9.46875 16.7812 8.27083 15.9375L6.79167 17.4375C8.375 18.6458 10.3542 19.375 12.5 19.375C17.6771 19.375 21.875 15.1771 21.875 10C21.875 4.82292 17.6771 0.625 12.5 0.625Z" />
    </symbol>
    <symbol id="arrow-next-icon" viewBox="0 0 20 20" fill="none">
        <path d="M4.16699 10H15.8337" stroke="currentColor" stroke-width="2" stroke-linecap="round" stroke-linejoin="round" />
        <path d="M10.833 5L15.833 10L10.833 15" stroke="currentColor" stroke-width="2" stroke-linecap="round" stroke-linejoin="round" />
    </symbol>
    <symbol id="favorite" viewBox="0 0 20 19" fill="none">
+        <path d="M9.22318 16.2905L9.22174 16.2892C6.62662 13.936 4.55384 12.0538 3.1178 10.2981C1.69324 8.55647 1 7.06152 1 5.5C1 2.97228 2.97228 1 5.5 1C6.93721 1 8.33224 1.67394 9.23865 2.73834L10 3.6324L10.7614 2.73834C11.6678 1.67394 13.0628 1 14.5 1C17.0277 1 19 2.97228 19 5.5C19 7.06153 18.3068 8.55653 16.882 10.2996C15.4459 12.0566 13.3734 13.9409 10.7786 16.2989C10.7782 16.2993 10.7778 16.2996 10.7775 16.2999L10.0026 17L9.22318 16.2905Z" stroke="#A63A50" stroke-width="2"/>
    </symbol>
</svg>